<svg viewBox="0 0 20 20" class="settingsBilling" style="width: 20px; height: 20px; display: block; fill: inherit; flex-shrink: 0; backface-visibility: hidden;"><path d="M3.24219 17.5625H16.7578C18.3984 17.5625 19.2109 16.75 19.2109 15.1406V5.60156C19.2109 3.99219 18.3984 3.17969 16.7578 3.17969H3.24219C1.60938 3.17969 0.789062 3.98438 0.789062 5.60156V15.1406C0.789062 16.7578 1.60938 17.5625 3.24219 17.5625ZM2.04688 5.66406C2.04688 4.85156 2.47656 4.4375 3.25781 4.4375H16.7422C17.5156 4.4375 17.9531 4.85156 17.9531 5.66406V6.84375H2.04688V5.66406ZM3.25781 16.3047C2.47656 16.3047 2.04688 15.8906 2.04688 15.0781V8.61719H17.9531V15.0781C17.9531 15.8906 17.5156 16.3047 16.7422 16.3047H3.25781ZM4.5 14.625H6.41406C6.86719 14.625 7.17969 14.3125 7.17969 13.875V12.4297C7.17969 11.9844 6.86719 11.6797 6.41406 11.6797H4.5C4.03906 11.6797 3.72656 11.9844 3.72656 12.4297V13.875C3.72656 14.3125 4.03906 14.625 4.5 14.625Z"></path></svg>