<svg viewBox="0 0 16 16" class="calendar" style="width: 16px; height: 16px; display: block; flex-shrink: 0; margin-right: 6px;"><path d="M3.24902 14.7764H12.6621C14.1455 14.7764 14.918 14.0107 14.918 12.5479V4.22852C14.918 2.76562 14.1455 2 12.6621 2H3.24902C1.77246 2 1 2.75879 1 4.22852V12.5479C1 14.0107 1.77246 14.7764 3.24902 14.7764ZM3.24219 13.416C2.6748 13.416 2.36035 13.1221 2.36035 12.5205V6.23145C2.36035 5.62988 2.6748 5.33594 3.24219 5.33594H12.6689C13.2363 5.33594 13.5508 5.62988 13.5508 6.23145V12.5205C13.5508 13.1221 13.2363 13.416 12.6689 13.416H3.24219ZM6.63965 7.69434H7.04297C7.28906 7.69434 7.37109 7.61914 7.37109 7.37988V6.97656C7.37109 6.73047 7.28906 6.65527 7.04297 6.65527H6.63965C6.39355 6.65527 6.31152 6.73047 6.31152 6.97656V7.37988C6.31152 7.61914 6.39355 7.69434 6.63965 7.69434ZM8.875 7.69434H9.27832C9.51758 7.69434 9.59961 7.61914 9.59961 7.37988V6.97656C9.59961 6.73047 9.51758 6.65527 9.27832 6.65527H8.875C8.62891 6.65527 8.54688 6.73047 8.54688 6.97656V7.37988C8.54688 7.61914 8.62891 7.69434 8.875 7.69434ZM11.1035 7.69434H11.5068C11.7529 7.69434 11.835 7.61914 11.835 7.37988V6.97656C11.835 6.73047 11.7529 6.65527 11.5068 6.65527H11.1035C10.8643 6.65527 10.7822 6.73047 10.7822 6.97656V7.37988C10.7822 7.61914 10.8643 7.69434 11.1035 7.69434ZM4.41113 9.89551H4.80762C5.05371 9.89551 5.13574 9.82031 5.13574 9.57422V9.1709C5.13574 8.93164 5.05371 8.85645 4.80762 8.85645H4.41113C4.16504 8.85645 4.08301 8.93164 4.08301 9.1709V9.57422C4.08301 9.82031 4.16504 9.89551 4.41113 9.89551ZM6.63965 9.89551H7.04297C7.28906 9.89551 7.37109 9.82031 7.37109 9.57422V9.1709C7.37109 8.93164 7.28906 8.85645 7.04297 8.85645H6.63965C6.39355 8.85645 6.31152 8.93164 6.31152 9.1709V9.57422C6.31152 9.82031 6.39355 9.89551 6.63965 9.89551ZM8.875 9.89551H9.27832C9.51758 9.89551 9.59961 9.82031 9.59961 9.57422V9.1709C9.59961 8.93164 9.51758 8.85645 9.27832 8.85645H8.875C8.62891 8.85645 8.54688 8.93164 8.54688 9.1709V9.57422C8.54688 9.82031 8.62891 9.89551 8.875 9.89551ZM11.1035 9.89551H11.5068C11.7529 9.89551 11.835 9.82031 11.835 9.57422V9.1709C11.835 8.93164 11.7529 8.85645 11.5068 8.85645H11.1035C10.8643 8.85645 10.7822 8.93164 10.7822 9.1709V9.57422C10.7822 9.82031 10.8643 9.89551 11.1035 9.89551ZM4.41113 12.0898H4.80762C5.05371 12.0898 5.13574 12.0146 5.13574 11.7754V11.3721C5.13574 11.126 5.05371 11.0508 4.80762 11.0508H4.41113C4.16504 11.0508 4.08301 11.126 4.08301 11.3721V11.7754C4.08301 12.0146 4.16504 12.0898 4.41113 12.0898ZM6.63965 12.0898H7.04297C7.28906 12.0898 7.37109 12.0146 7.37109 11.7754V11.3721C7.37109 11.126 7.28906 11.0508 7.04297 11.0508H6.63965C6.39355 11.0508 6.31152 11.126 6.31152 11.3721V11.7754C6.31152 12.0146 6.39355 12.0898 6.63965 12.0898ZM8.875 12.0898H9.27832C9.51758 12.0898 9.59961 12.0146 9.59961 11.7754V11.3721C9.59961 11.126 9.51758 11.0508 9.27832 11.0508H8.875C8.62891 11.0508 8.54688 11.126 8.54688 11.3721V11.7754C8.54688 12.0146 8.62891 12.0898 8.875 12.0898Z"></path></svg>