<svg viewBox="0 0 30 30" class="circleCross" style="width: 16px; height: 16px; display: block; flex-shrink: 0; backface-visibility: hidden;"><path d="M15 28.354c7.305 0 13.354-6.049 13.354-13.354 0-7.292-6.062-13.354-13.367-13.354C7.695 1.646 1.646 7.708 1.646 15c0 7.305 6.062 13.354 13.354 13.354zm0-2.226A11.075 11.075 0 013.885 15c0-6.166 4.922-11.128 11.102-11.128 6.18 0 11.128 4.962 11.141 11.128A11.078 11.078 0 0115 26.128zm-4.477-5.577a.99.99 0 00.746-.327l3.718-3.731 3.731 3.73c.197.197.445.328.747.328.576 0 1.047-.484 1.047-1.06a.979.979 0 00-.314-.747l-3.718-3.718 3.73-3.744c.223-.223.315-.445.315-.733 0-.59-.471-1.048-1.047-1.048-.275 0-.498.092-.72.315l-3.771 3.744-3.744-3.731c-.184-.21-.432-.301-.72-.301-.577 0-1.048.445-1.048 1.034a.97.97 0 00.314.733l3.719 3.731-3.719 3.732a.951.951 0 00-.314.733c0 .576.471 1.06 1.048 1.06z"></path></svg>