<svg viewBox="0 0 56 56" class="commentSidebarZero" style="width: 54px; height: 54px; display: block; flex-shrink: 0; margin-bottom: 12px;"><path d="M13.1289 47.6641C13.9297 47.6641 14.4961 47.3516 15.4141 46.5508L21.8984 40.5938C23.0703 42.4297 25.1602 43.4258 27.9922 43.4258H36.3516L42.6602 48.8164C43.5195 49.5586 44.0273 49.9492 44.7305 49.9492C45.7461 49.9492 46.332 49.2266 46.332 48.0938V43.4258H47.4453C51.8398 43.4258 54.6328 40.8281 54.6328 36.2969V24.1289C54.6328 19.5977 51.8398 17 47.4453 17H43.9688V14.793C43.9688 9.83203 41.0781 7 36.0977 7H8.87109C4.00781 7 1 9.83203 1 14.793V32.4297C1 37.4102 4.00781 40.2422 8.87109 40.2422H11.4492V45.7695C11.4492 46.9609 12.0742 47.6641 13.1289 47.6641ZM13.7539 39.2461C13.7539 38.3867 13.2266 37.9766 12.543 37.9766H9.08594C5.43359 37.9766 3.42188 36.043 3.42188 32.293V14.9492C3.42188 11.2188 5.45312 9.26562 9.08594 9.26562H35.8828C39.5156 9.26562 41.5469 11.2188 41.5469 14.9492V17H27.9922C23.4414 17 20.8047 19.5977 20.8047 24.1289V36.3164C20.8047 36.9805 20.8438 37.6055 20.9609 38.1719L13.7539 44.9883V39.2461ZM44.0859 47.2148L38.1289 41.9023C37.4844 41.3359 37.0938 41.1602 36.2344 41.1602H28.168C25.0039 41.1602 23.207 39.4805 23.207 36.1797V24.2656C23.207 20.9648 25.0039 19.2656 28.168 19.2656H47.25C50.4336 19.2656 52.2305 20.9648 52.2305 24.2656V36.1602C52.2305 39.4609 50.4336 41.1602 47.25 41.1602H45.2383C44.5938 41.1602 44.0859 41.5312 44.0859 42.3711V47.2148Z"></path></svg>