<svg viewBox="0 0 16 16" class="customizePage" style="width: 16px; height: 16px; display: block; flex-shrink: 0;"><path d="M10.5361 5.54883C11.2744 5.54883 11.9033 5.09082 12.1631 4.44141H14.4258C14.7607 4.44141 15.0479 4.14746 15.0479 3.79199C15.0479 3.43652 14.7676 3.14258 14.4258 3.14258H12.1699C11.9102 2.49316 11.2744 2.03516 10.5361 2.03516C9.79785 2.03516 9.16211 2.49316 8.90234 3.14258H1.59473C1.23242 3.14258 0.952148 3.43652 0.952148 3.79199C0.952148 4.14746 1.23926 4.44141 1.59473 4.44141H8.90234C9.16211 5.09082 9.79785 5.54883 10.5361 5.54883ZM10.5361 4.62598C10.0713 4.62598 9.69531 4.25684 9.69531 3.79199C9.69531 3.31348 10.0713 2.95117 10.5361 2.95117C11.0078 2.95117 11.3701 3.31348 11.3701 3.79199C11.3701 4.25684 11.0078 4.62598 10.5361 4.62598ZM1.56738 7.40137C1.23242 7.40137 0.952148 7.68848 0.952148 8.05078C0.952148 8.39941 1.23926 8.69336 1.56738 8.69336H3.91211C4.16504 9.34277 4.80078 9.80762 5.5459 9.80762C6.27734 9.80762 6.91309 9.34277 7.17285 8.69336H14.4053C14.7607 8.69336 15.0479 8.40625 15.0479 8.05078C15.0479 7.68848 14.7676 7.40137 14.4053 7.40137H7.17285C6.91309 6.75195 6.27734 6.29395 5.5459 6.29395C4.80762 6.29395 4.17188 6.75195 3.91211 7.40137H1.56738ZM5.5459 8.88477C5.07422 8.88477 4.70508 8.51562 4.70508 8.05078C4.70508 7.57227 5.07422 7.20996 5.5459 7.20996C6.01758 7.20996 6.37988 7.57227 6.37988 8.05078C6.37988 8.51562 6.01758 8.88477 5.5459 8.88477ZM10.5361 14.0596C11.2744 14.0596 11.9102 13.6016 12.1699 12.9521H14.4258C14.7607 12.9521 15.0479 12.6582 15.0479 12.3027C15.0479 11.9404 14.7676 11.6533 14.4258 11.6533H12.1631C11.9102 11.0039 11.2744 10.5459 10.5361 10.5459C9.79785 10.5459 9.16211 11.0039 8.90234 11.6533H1.59473C1.23242 11.6533 0.952148 11.9473 0.952148 12.3027C0.952148 12.6582 1.23926 12.9521 1.59473 12.9521H8.90234C9.16211 13.6016 9.79785 14.0596 10.5361 14.0596ZM10.5361 13.1436C10.0713 13.1436 9.69531 12.7676 9.69531 12.3027C9.69531 11.8311 10.0713 11.4619 10.5361 11.4619C11.0078 11.4619 11.3701 11.8311 11.3701 12.3027C11.3701 12.7676 11.0078 13.1436 10.5361 13.1436Z"></path></svg>