<svg viewBox="0 0 16 16" class="alias" style="width: 16px; height: 16px; display: block; flex-shrink: 0; margin-right: 4px;"><path d="M13.1475 10.5869V3.72363C13.1475 3.25195 12.833 2.93066 12.3477 2.93066H5.48438C5.02637 2.93066 4.70508 3.27246 4.70508 3.67578C4.70508 4.07227 5.05371 4.40039 5.46387 4.40039H7.89746L10.8438 4.30469L9.59961 5.39844L3.08496 11.9199C2.92773 12.0771 2.8457 12.2686 2.8457 12.46C2.8457 12.8564 3.20801 13.2256 3.61816 13.2256C3.80957 13.2256 3.99414 13.1504 4.15137 12.9932L10.6729 6.47168L11.7803 5.22754L11.6641 8.05762V10.6074C11.6641 11.0176 11.9922 11.373 12.4023 11.373C12.8057 11.373 13.1475 11.0312 13.1475 10.5869Z"></path></svg>