<svg viewBox="0 0 20 20" class="settingsSecurity" style="width: 20px; height: 20px; display: block; fill: inherit; flex-shrink: 0; backface-visibility: hidden;"><path d="M10 18.4609C10.125 18.4609 10.3281 18.4141 10.5234 18.3047C14.9688 15.8125 16.4922 14.7578 16.4922 11.9062V5.92969C16.4922 5.10938 16.1406 4.85156 15.4766 4.57031C14.5547 4.1875 11.5781 3.11719 10.6562 2.79688C10.4453 2.72656 10.2188 2.67969 10 2.67969C9.78125 2.67969 9.55469 2.74219 9.35156 2.79688C8.42969 3.0625 5.44531 4.19531 4.52344 4.57031C3.86719 4.84375 3.50781 5.10938 3.50781 5.92969V11.9062C3.50781 14.7578 5.03906 15.8047 9.47656 18.3047C9.67969 18.4141 9.875 18.4609 10 18.4609ZM10 17.0469C9.875 17.0469 9.75 17 9.51562 16.8594C5.90625 14.6719 4.75 14.0312 4.75 11.6172V6.17188C4.75 5.90625 4.79688 5.80469 5.01562 5.71875C6.20312 5.25 8.50781 4.47656 9.6875 4.00781C9.8125 3.95312 9.91406 3.9375 10 3.9375C10.0859 3.9375 10.1875 3.96094 10.3125 4.00781C11.4922 4.47656 13.7812 5.30469 14.9922 5.71875C15.2031 5.79688 15.25 5.90625 15.25 6.17188V11.6172C15.25 14.0312 14.0938 14.6641 10.4844 16.8594C10.2578 17 10.125 17.0469 10 17.0469ZM9.14844 13.8984C9.40625 13.8984 9.625 13.7734 9.78125 13.5391L13.3516 7.91406C13.4375 7.76562 13.5391 7.59375 13.5391 7.41406C13.5391 7.07031 13.2266 6.84375 12.9062 6.84375C12.7031 6.84375 12.5078 6.96094 12.3594 7.19531L9.11719 12.3984L7.57812 10.4062C7.39062 10.1562 7.21875 10.0859 7.00781 10.0859C6.66406 10.0859 6.39844 10.3594 6.39844 10.7109C6.39844 10.875 6.46875 11.0469 6.57812 11.1953L8.48438 13.5391C8.67969 13.7969 8.89062 13.8984 9.14844 13.8984Z"></path></svg>