<svg viewBox="0 0 30 30" class="inbox" style="width: 48px; height: 48px; display: block; flex-shrink: 0; backface-visibility: hidden;"><path d="M4.445 25.3h20.532c2.296 0 3.457-1.16 3.457-3.421v-6.715c0-.902-.13-1.324-.563-1.887l-4.406-5.53c-1.195-1.5-1.793-1.934-3.668-1.934H9.625c-1.875 0-2.473.433-3.668 1.933l-4.406 5.531c-.434.563-.563.985-.563 1.887v6.715c0 2.273 1.172 3.422 3.457 3.422zm10.266-6.948c-1.734 0-2.93-1.442-2.93-3v-.059c0-.422-.234-.785-.738-.785h-8.11c-.304 0-.374-.27-.222-.469l4.664-5.93c.574-.726 1.207-1.02 2.121-1.02h10.43c.914 0 1.547.294 2.12 1.02l4.665 5.93c.164.2.094.469-.211.469h-8.121c-.504 0-.738.363-.738.785v.059c0 1.558-1.196 3-2.93 3zM4.469 23.859c-1.313 0-2.028-.703-2.028-2.05v-5.977h7.957c.188 2.25 2.004 3.855 4.313 3.855 2.309 0 4.125-1.617 4.312-3.855h7.957v5.977c0 1.347-.738 2.05-2.027 2.05H4.47z"></path></svg>