<svg viewBox="0 0 20 20" class="mention" style="width: 14px; height: 100%; display: block; flex-shrink: 0;"><path d="M1 9.86523C1 15.2939 4.72705 18.6807 9.98975 18.6807C11.3511 18.6807 12.4634 18.5312 13.1606 18.2905C13.6919 18.1079 13.8828 17.8174 13.8828 17.4521C13.8828 17.0537 13.6089 16.7715 13.1523 16.7715C13.0195 16.7715 12.8784 16.7881 12.6958 16.8213C11.9238 16.9873 11.2266 17.1118 10.2637 17.1118C5.74805 17.1118 2.74316 14.4058 2.74316 9.91504C2.74316 5.56543 5.61523 2.56055 9.88184 2.56055C13.7417 2.56055 16.7383 4.97607 16.7383 9.11816C16.7383 11.3511 15.9995 12.8452 14.8125 12.8452C14.0239 12.8452 13.5757 12.3472 13.5757 11.4839V6.44531C13.5757 5.84766 13.252 5.49072 12.6709 5.49072C12.0981 5.49072 11.7578 5.84766 11.7578 6.44531V7.10107H11.6333C11.21 6.09668 10.2305 5.49072 9.01855 5.49072C6.90186 5.49072 5.43262 7.28369 5.43262 9.89844C5.43262 12.5547 6.91846 14.3892 9.11816 14.3892C10.3799 14.3892 11.3013 13.7417 11.7578 12.6045H11.8823C12.1147 13.7168 13.0942 14.3809 14.4307 14.3809C16.8877 14.3809 18.3984 12.1895 18.3984 8.96045C18.3984 4.1626 14.8706 1 9.89014 1C4.66064 1 1 4.56104 1 9.86523ZM9.5415 12.7207C8.26318 12.7207 7.46631 11.6499 7.46631 9.92334C7.46631 8.21338 8.27148 7.14258 9.5498 7.14258C10.8364 7.14258 11.6582 8.20508 11.6582 9.89844C11.6582 11.625 10.8281 12.7207 9.5415 12.7207Z"></path></svg>