<svg viewBox="0 0 20 20" class="settingsNotificationsAndPersonal" style="width: 20px; height: 20px; display: block; fill: inherit; flex-shrink: 0; backface-visibility: hidden;"><path d="M12.5361 7.54883C13.2744 7.54883 13.9033 7.09082 14.1631 6.44141H16.4258C16.7607 6.44141 17.0479 6.14746 17.0479 5.79199C17.0479 5.43652 16.7676 5.14258 16.4258 5.14258H14.1699C13.9102 4.49316 13.2744 4.03516 12.5361 4.03516C11.7979 4.03516 11.1621 4.49316 10.9023 5.14258H3.59473C3.23242 5.14258 2.95215 5.43652 2.95215 5.79199C2.95215 6.14746 3.23926 6.44141 3.59473 6.44141H10.9023C11.1621 7.09082 11.7979 7.54883 12.5361 7.54883ZM12.5361 6.62598C12.0713 6.62598 11.6953 6.25684 11.6953 5.79199C11.6953 5.31348 12.0713 4.95117 12.5361 4.95117C13.0078 4.95117 13.3701 5.31348 13.3701 5.79199C13.3701 6.25684 13.0078 6.62598 12.5361 6.62598ZM3.56738 9.40137C3.23242 9.40137 2.95215 9.68848 2.95215 10.0508C2.95215 10.3994 3.23926 10.6934 3.56738 10.6934H5.91211C6.16504 11.3428 6.80078 11.8076 7.5459 11.8076C8.27734 11.8076 8.91309 11.3428 9.17285 10.6934H16.4053C16.7607 10.6934 17.0479 10.4062 17.0479 10.0508C17.0479 9.68848 16.7676 9.40137 16.4053 9.40137H9.17285C8.91309 8.75195 8.27734 8.29395 7.5459 8.29395C6.80762 8.29395 6.17188 8.75195 5.91211 9.40137H3.56738ZM7.5459 10.8848C7.07422 10.8848 6.70508 10.5156 6.70508 10.0508C6.70508 9.57227 7.07422 9.20996 7.5459 9.20996C8.01758 9.20996 8.37988 9.57227 8.37988 10.0508C8.37988 10.5156 8.01758 10.8848 7.5459 10.8848ZM12.5361 16.0596C13.2744 16.0596 13.9102 15.6016 14.1699 14.9521H16.4258C16.7607 14.9521 17.0479 14.6582 17.0479 14.3027C17.0479 13.9404 16.7676 13.6533 16.4258 13.6533H14.1631C13.9102 13.0039 13.2744 12.5459 12.5361 12.5459C11.7979 12.5459 11.1621 13.0039 10.9023 13.6533H3.59473C3.23242 13.6533 2.95215 13.9473 2.95215 14.3027C2.95215 14.6582 3.23926 14.9521 3.59473 14.9521H10.9023C11.1621 15.6016 11.7979 16.0596 12.5361 16.0596ZM12.5361 15.1436C12.0713 15.1436 11.6953 14.7676 11.6953 14.3027C11.6953 13.8311 12.0713 13.4619 12.5361 13.4619C13.0078 13.4619 13.3701 13.8311 13.3701 14.3027C13.3701 14.7676 13.0078 15.1436 12.5361 15.1436Z"></path></svg>