<svg viewBox="0 0 16 14" class="openTeam" style="width: 16px; height: 16px; display: block; flex-shrink: 0; margin-right: 6px;"><path d="M9.506 13.342h4.447c.348 0 .621-.11.82-.328.2-.22.3-.516.3-.891V4.852c0-.375-.1-.67-.3-.885-.199-.219-.472-.328-.82-.328H9.922v1.136h3.709c.101 0 .178.026.228.077.051.05.076.127.076.228v6.815c0 .101-.025.177-.076.228-.05.05-.127.076-.228.076H9.506v1.143zm2.28-6.358h.925c.129 0 .193-.064.193-.193v-.896c0-.133-.064-.2-.193-.2h-.926c-.125 0-.187.067-.187.2v.896c0 .129.062.193.187.193zm0 2.168h.925c.129 0 .193-.066.193-.199v-.896c0-.133-.064-.2-.193-.2h-.926c-.125 0-.187.067-.187.2v.896c0 .133.062.2.187.2zm0 2.163h.925c.129 0 .193-.067.193-.2v-.896c0-.13-.064-.194-.193-.194h-.926c-.125 0-.187.065-.187.194v.896c0 .133.062.2.187.2zm-10.864.808c0 .375.1.672.299.89.199.22.474.329.826.329H9.44c.348 0 .621-.11.82-.328.204-.22.305-.516.305-.891V1.928c0-.38-.101-.676-.304-.89-.2-.22-.473-.329-.82-.329H2.046c-.352 0-.627.11-.826.328-.2.215-.3.512-.3.89v10.196zm1.142-.228V2.162c0-.105.026-.183.077-.234.05-.051.127-.076.228-.076h6.75c.102 0 .178.025.229.076.05.05.076.129.076.234v9.733c0 .101-.026.177-.076.228-.051.05-.127.076-.229.076H2.37c-.101 0-.178-.025-.228-.076-.051-.05-.077-.127-.077-.228zm1.588.85h.891v-1.946c0-.117.06-.176.182-.176h2.039c.12 0 .181.059.181.176v1.945h.89V10.5c0-.25-.058-.435-.175-.557-.117-.125-.295-.187-.533-.187H4.36c-.238 0-.416.062-.533.187-.117.122-.176.307-.176.557v2.244zm.17-8.362h1.12c.156 0 .234-.078.234-.235v-1.09c0-.156-.078-.234-.235-.234H3.822c-.148 0-.222.078-.222.235v1.09c0 .156.074.234.222.234zm2.719 0h1.12c.152 0 .228-.078.228-.235v-1.09c0-.156-.077-.234-.229-.234H6.541c-.152 0-.229.078-.229.235v1.09c0 .156.077.234.229.234zM3.822 6.627h1.12c.156 0 .234-.078.234-.234V5.309c0-.157-.078-.235-.235-.235H3.822c-.148 0-.222.078-.222.235v1.084c0 .156.074.234.222.234zm2.719 0h1.12c.152 0 .228-.078.228-.234V5.309c0-.157-.077-.235-.229-.235H6.541c-.152 0-.229.078-.229.235v1.084c0 .156.077.234.229.234zm-2.719 2.25h1.12c.156 0 .234-.08.234-.24V7.553c0-.157-.078-.235-.235-.235H3.822c-.148 0-.222.078-.222.235v1.084c0 .16.074.24.222.24zm2.719 0h1.12c.152 0 .228-.08.228-.24V7.553c0-.157-.077-.235-.229-.235H6.541c-.152 0-.229.078-.229.235v1.084c0 .16.077.24.229.24z"></path></svg>