<svg viewBox="0 0 16 16" class="undo" style="width: 16px; height: 16px; display: block; flex-shrink: 0;"><path d="M14.542 10.6826C14.542 7.96875 12.71 6.10254 9.59961 6.10254H5.29297L3.70703 6.1709L4.91016 5.15234L6.67383 3.43652C6.80371 3.30664 6.89258 3.14258 6.89258 2.91699C6.89258 2.5 6.59863 2.19238 6.1543 2.19238C5.96973 2.19238 5.76465 2.28125 5.61426 2.4248L1.69043 6.29395C1.5332 6.4375 1.45117 6.64258 1.45117 6.84766C1.45117 7.05273 1.5332 7.25098 1.69043 7.40137L5.61426 11.2705C5.76465 11.4141 5.96973 11.5029 6.1543 11.5029C6.59863 11.5029 6.89258 11.1953 6.89258 10.7715C6.89258 10.5527 6.80371 10.3887 6.67383 10.252L4.91016 8.53613L3.70703 7.52441L5.29297 7.59277H9.64746C11.8486 7.59277 13.0586 8.84375 13.0586 10.6211C13.0586 12.4053 11.8486 13.7109 9.64746 13.7109H8.05469C7.60352 13.7109 7.2959 14.0459 7.2959 14.4629C7.2959 14.873 7.61035 15.208 8.05469 15.208H9.69531C12.751 15.208 14.542 13.4102 14.542 10.6826Z"></path></svg>