<svg viewBox="0 0 12 14" class="searchInPage" style="width: 16px; height: 16px; display: block; flex-shrink: 0; margin-right: 6px;"><path d="M2.877 13.365h6.24c.63 0 1.104-.164 1.424-.492.32-.324.48-.8.48-1.43V6.13c0-.274-.015-.504-.046-.691a1.531 1.531 0 00-.182-.522 2.185 2.185 0 00-.387-.498l-3.07-3.123a2.11 2.11 0 00-.48-.38 1.528 1.528 0 00-.51-.183A3.464 3.464 0 005.7.68H2.877c-.629 0-1.104.164-1.424.492-.32.324-.48.8-.48 1.43v8.841c0 .633.16 1.112.48 1.436.32.324.795.486 1.424.486zm.094-1.154c-.282 0-.492-.072-.633-.217-.14-.144-.211-.351-.211-.621V2.678c0-.27.07-.479.21-.627.142-.149.354-.223.64-.223h2.496V5.04c0 .418.101.73.304.938.207.207.52.31.938.31h3.158v5.086c0 .27-.07.477-.21.621-.142.145-.354.217-.64.217H2.971zm3.855-6.938c-.12 0-.209-.027-.263-.082-.051-.054-.077-.142-.077-.263V1.986l3.229 3.287H6.826z"></path></svg>