<svg viewBox="0 0 16 16" class="peekModeCenter" style="width: 15px; height: 15px; display: block; flex-shrink: 0;"><path d="M2.1416 14.4492H13.8516C15.3281 14.4492 16.0938 13.6904 16.0938 12.2344V3.9082C16.0938 2.45215 15.3281 1.69336 13.8516 1.69336H2.1416C0.665039 1.69336 -0.100586 2.44531 -0.100586 3.9082V12.2344C-0.100586 13.6904 0.665039 14.4492 2.1416 14.4492ZM2.22363 13.1094C1.58789 13.1094 1.23926 12.7812 1.23926 12.1182V4.02441C1.23926 3.36133 1.58789 3.02637 2.22363 3.02637H13.7695C14.3984 3.02637 14.7539 3.36133 14.7539 4.02441V12.1182C14.7539 12.7812 14.3984 13.1094 13.7695 13.1094H2.22363ZM4.33594 11.0654H11.6504C12.0742 11.0654 12.2588 10.8809 12.2588 10.4502V5.69238C12.2588 5.25488 12.0742 5.07715 11.6504 5.07715H4.33594C3.91211 5.07715 3.72754 5.25488 3.72754 5.69238V10.4502C3.72754 10.8809 3.91211 11.0654 4.33594 11.0654Z"></path></svg>