<svg viewBox="0 0 24 24" class="chevronRightRoundedThin" style="width: 20px; height: 20px; display: block; flex-shrink: 0;"><path d="M17.0078 11.8594C17.0078 11.724 16.9818 11.599 16.9297 11.4844C16.8776 11.3698 16.7995 11.2604 16.6953 11.1562L10.6094 5.20312C10.4375 5.03125 10.224 4.94531 9.96875 4.94531C9.80208 4.94531 9.64844 4.98698 9.50781 5.07031C9.36719 5.14844 9.25521 5.25521 9.17188 5.39062C9.09375 5.52604 9.05469 5.67969 9.05469 5.85156C9.05469 6.09635 9.14844 6.3151 9.33594 6.50781L14.8203 11.8594L9.33594 17.2109C9.14844 17.4036 9.05469 17.625 9.05469 17.875C9.05469 18.0417 9.09375 18.1927 9.17188 18.3281C9.25521 18.4688 9.36719 18.5781 9.50781 18.6562C9.64844 18.7396 9.80208 18.7812 9.96875 18.7812C10.224 18.7812 10.4375 18.6927 10.6094 18.5156L16.6953 12.5625C16.7995 12.4583 16.8776 12.349 16.9297 12.2344C16.9818 12.1198 17.0078 11.9948 17.0078 11.8594Z"></path></svg>