<svg viewBox="0 0 11 20" class="settingsSecurity" style="width: 20px; height: 20px; display: block; fill: inherit; flex-shrink: 0; backface-visibility: hidden;"><path d="M4.92129 19.3231C5.26719 19.627 5.74092 19.6649 6.07178 19.3383L8.38779 16.9913C8.71865 16.6571 8.70361 16.1558 8.38027 15.8292L7.2749 14.7127L8.92168 13.0569C9.2375 12.7379 9.22998 12.229 8.90664 11.8948L7.41026 10.3757C9.44805 9.35026 10.5985 7.64127 10.5985 5.62847C10.5985 2.78016 8.32012 0.486328 5.49277 0.486328C2.66543 0.486328 0.394531 2.77257 0.394531 5.62847C0.394531 7.67166 1.54502 9.50217 3.37979 10.3301V17.4622C3.37979 17.7357 3.4625 18.0471 3.69561 18.2446L4.92129 19.3231ZM5.49277 17.9863L4.68066 17.166V9.34266C2.95869 8.9629 1.73301 7.4438 1.73301 5.62847C1.73301 3.53972 3.40986 1.84592 5.49277 1.84592C7.57569 1.84592 9.24502 3.53212 9.24502 5.62847C9.24502 7.42101 8.01181 8.96289 6.13194 9.38824V11.0289L7.57569 12.4872L6.03418 14.0214V15.3887L7.04931 16.3989L5.49277 17.9863ZM5.49277 5.67405C6.23721 5.67405 6.83877 5.06641 6.83877 4.32205C6.83877 3.5777 6.23721 2.97005 5.49277 2.97005C4.74834 2.97005 4.1543 3.5701 4.1543 4.32205C4.1543 5.06641 4.75586 5.67405 5.49277 5.67405Z"></path></svg>