<svg viewBox="0 0 20 20" class="settingsLanguage" style="width: 20px; height: 20px; display: block; fill: inherit; flex-shrink: 0; backface-visibility: hidden;"><path d="M10 18.3281C14.3594 18.3281 17.9688 14.7109 17.9688 10.3594C17.9688 6 14.3516 2.39062 9.99219 2.39062C5.64062 2.39062 2.03125 6 2.03125 10.3594C2.03125 14.7109 5.64844 18.3281 10 18.3281ZM5.32812 5.29688C6.10938 4.57031 7.0625 4.02344 8.10938 3.71875C7.57031 4.26562 7.10938 5.03906 6.76562 5.99219C6.21094 5.8125 5.72656 5.57812 5.32812 5.29688ZM11.8984 3.72656C12.9375 4.03125 13.8828 4.57812 14.6719 5.30469C14.2734 5.58594 13.7891 5.8125 13.2344 5.99219C12.8906 5.04688 12.4297 4.27344 11.8984 3.72656ZM7.77344 6.25C8.21094 5.05469 8.82031 4.19531 9.49219 3.89844V6.42969C8.875 6.40625 8.30469 6.34375 7.77344 6.25ZM10.5156 3.89844C11.1797 4.19531 11.7891 5.05469 12.2266 6.25C11.6953 6.34375 11.125 6.40625 10.5156 6.42969V3.89844ZM3.10938 9.84375C3.21875 8.42188 3.77344 7.10156 4.63281 6.03906C5.11719 6.40625 5.74219 6.71094 6.46875 6.94531C6.24219 7.82031 6.10156 8.79688 6.0625 9.84375H3.10938ZM13.9375 9.84375C13.8984 8.79688 13.7578 7.82031 13.5312 6.94531C14.2578 6.71094 14.8828 6.40625 15.3594 6.04688C16.2266 7.10156 16.7812 8.42188 16.8906 9.84375H13.9375ZM10.5156 9.84375V7.45312C11.2188 7.42969 11.8906 7.34375 12.5234 7.21094C12.7266 8.01562 12.8516 8.90625 12.8906 9.84375H10.5156ZM7.10938 9.84375C7.14844 8.90625 7.28125 8.01562 7.47656 7.21094C8.10938 7.34375 8.78125 7.42969 9.49219 7.45312V9.84375H7.10938ZM3.10938 10.8672H6.0625C6.10156 11.9375 6.24219 12.9219 6.46875 13.8047C5.75 14.0391 5.13281 14.3438 4.65625 14.7031C3.78125 13.6328 3.21875 12.3047 3.10938 10.8672ZM7.10938 10.8672H9.49219V13.3047C8.78906 13.3281 8.11719 13.4141 7.49219 13.5391C7.28125 12.7266 7.14062 11.8203 7.10938 10.8672ZM10.5156 13.3047V10.8672H12.8906C12.8594 11.8203 12.7188 12.7266 12.5078 13.5391C11.8906 13.4141 11.2109 13.3281 10.5156 13.3047ZM13.5312 13.8047C13.7578 12.9219 13.8984 11.9375 13.9375 10.8672H16.8906C16.7812 12.3047 16.2188 13.6328 15.3438 14.7031C14.8672 14.3438 14.25 14.0391 13.5312 13.8047ZM10.5156 14.3281C11.1172 14.3516 11.6875 14.4062 12.2109 14.5078C11.7734 15.6719 11.1719 16.5312 10.5156 16.8281V14.3281ZM7.78906 14.5078C8.3125 14.4062 8.88281 14.3516 9.49219 14.3281V16.8281C8.82812 16.5312 8.22656 15.6719 7.78906 14.5078ZM13.2266 14.7578C13.7734 14.9375 14.25 15.1641 14.6484 15.4375C13.8672 16.1484 12.9375 16.6875 11.9062 16.9922C12.4297 16.4531 12.8828 15.6875 13.2266 14.7578ZM5.35156 15.4375C5.75 15.1641 6.22656 14.9375 6.77344 14.7578C7.11719 15.6875 7.57031 16.4531 8.10156 16.9922C7.07031 16.6875 6.13281 16.1484 5.35156 15.4375Z"></path></svg>