<svg viewBox="0 0 16 16" class="star" style="width: 16px; height: 16px; display: block; flex-shrink: 0;"><path d="M3.2627 14.7637C3.58398 15.0098 3.98047 14.9277 4.44531 14.5928L8 11.9814L11.5547 14.5928C12.0195 14.9277 12.4229 15.0098 12.7441 14.7637C13.0586 14.5244 13.127 14.1279 12.9424 13.5879L11.541 9.41113L15.1299 6.83398C15.5879 6.50586 15.7861 6.14355 15.6562 5.76074C15.5264 5.38477 15.1641 5.2002 14.5967 5.20703L10.1943 5.23438L8.85449 1.03711C8.68359 0.490234 8.40332 0.196289 8 0.196289C7.60352 0.196289 7.32324 0.490234 7.14551 1.03711L5.80566 5.23438L1.40332 5.20703C0.835938 5.2002 0.480469 5.38477 0.350586 5.76074C0.220703 6.14355 0.412109 6.50586 0.876953 6.83398L4.46582 9.41113L3.05762 13.5879C2.87305 14.1279 2.94141 14.5244 3.2627 14.7637ZM4.45898 13.1162C4.45215 13.1025 4.45215 13.0957 4.45898 13.0615L5.75781 9.39062C5.87402 9.05566 5.83301 8.84375 5.52539 8.63867L2.3125 6.4375C2.28516 6.42383 2.27148 6.41016 2.27832 6.38965C2.29199 6.37598 2.30566 6.36914 2.33984 6.36914L6.22949 6.45801C6.58496 6.47168 6.7627 6.35547 6.86523 6.01367L7.96582 2.28125C7.97266 2.24023 7.98633 2.2334 8 2.2334C8.02051 2.2334 8.02734 2.24023 8.04102 2.28125L9.13477 6.01367C9.2373 6.35547 9.42188 6.47168 9.77051 6.45801L13.6602 6.36914C13.7012 6.36914 13.7148 6.37598 13.7217 6.38965C13.7285 6.41016 13.7217 6.41699 13.6875 6.4375L10.4814 8.63867C10.167 8.85059 10.126 9.05566 10.2422 9.39062L11.541 13.0615C11.5547 13.0957 11.5547 13.1025 11.541 13.1162C11.5273 13.1367 11.5137 13.123 11.4863 13.1094L8.40332 10.7305C8.12305 10.5117 7.87695 10.5117 7.60352 10.7305L4.52051 13.1094C4.49316 13.123 4.47266 13.1367 4.45898 13.1162Z"></path></svg>