<svg viewBox="0 0 16 16" class="openTeamThick" style="width: 100%; height: 16px; display: block; flex-shrink: 0;"><path d="M0.5 13.5013C0.5 14.5494 1.07349 15.1624 2.06226 15.1624H10.3943C10.4602 15.1624 10.5195 15.1624 10.5854 15.1558V15.1624H13.9312C14.9199 15.1624 15.5 14.5494 15.5 13.5013V5.72954C15.5 4.68803 14.9199 4.06841 13.9312 4.06841H11.9565V2.36113C11.9565 1.31303 11.3831 0.699997 10.3943 0.699997H2.06226C1.07349 0.699997 0.5 1.31303 0.5 2.36113V13.5013ZM2.16772 13.2178V2.64458C2.16772 2.46001 2.2666 2.36113 2.44458 2.36113H10.012C10.1899 2.36113 10.2888 2.46001 10.2888 2.64458V13.2178C10.2888 13.4024 10.1899 13.5013 10.012 13.5013H8.68701V11.6424C8.68701 11.0953 8.40356 10.792 7.88281 10.792H4.58032C4.05957 10.792 3.76953 11.0953 3.76953 11.6424V13.5013H2.44458C2.2666 13.5013 2.16772 13.4024 2.16772 13.2178ZM4.12549 5.15605H5.33838C5.4834 5.15605 5.58887 5.05058 5.58887 4.89897V3.71245C5.58887 3.56084 5.4834 3.46196 5.33838 3.46196H4.12549C3.97388 3.46196 3.875 3.56084 3.875 3.71245V4.89897C3.875 5.05058 3.97388 5.15605 4.12549 5.15605ZM7.12476 5.15605H8.33105C8.48267 5.15605 8.58154 5.05058 8.58154 4.89897V3.71245C8.58154 3.56084 8.48267 3.46196 8.33105 3.46196H7.12476C6.97314 3.46196 6.87427 3.56084 6.87427 3.71245V4.89897C6.87427 5.05058 6.97314 5.15605 7.12476 5.15605ZM13.5488 5.72954C13.7334 5.72954 13.8323 5.82841 13.8323 6.01299V13.2178C13.8323 13.4024 13.7334 13.5013 13.5488 13.5013H11.9565V5.72954H13.5488ZM4.12549 7.53569H5.33838C5.4834 7.53569 5.58887 7.43681 5.58887 7.27861V6.09868C5.58887 5.94048 5.4834 5.8416 5.33838 5.8416H4.12549C3.97388 5.8416 3.875 5.94048 3.875 6.09868V7.27861C3.875 7.43681 3.97388 7.53569 4.12549 7.53569ZM7.12476 7.53569H8.33105C8.48267 7.53569 8.58154 7.43681 8.58154 7.27861V6.09868C8.58154 5.94048 8.48267 5.8416 8.33105 5.8416H7.12476C6.97314 5.8416 6.87427 5.94048 6.87427 6.09868V7.27861C6.87427 7.43681 6.97314 7.53569 7.12476 7.53569ZM4.12549 9.91533H5.33838C5.4834 9.91533 5.58887 9.81645 5.58887 9.66484V8.47832C5.58887 8.32671 5.4834 8.22124 5.33838 8.22124H4.12549C3.97388 8.22124 3.875 8.32671 3.875 8.47832V9.66484C3.875 9.81645 3.97388 9.91533 4.12549 9.91533ZM7.12476 9.91533H8.33105C8.48267 9.91533 8.58154 9.81645 8.58154 9.66484V8.47832C8.58154 8.32671 8.48267 8.22124 8.33105 8.22124H7.12476C6.97314 8.22124 6.87427 8.32671 6.87427 8.47832V9.66484C6.87427 9.81645 6.97314 9.91533 7.12476 9.91533ZM5.01538 12.1499C5.01538 12.0313 5.08789 11.9588 5.20654 11.9588H7.25659C7.37524 11.9588 7.44116 12.0313 7.44116 12.1499V13.5013H5.01538V12.1499Z"></path> </svg>