<svg viewBox="0 0 14 10" class="title" style="width: 16px; height: 16px; display: block; flex-shrink: 0; margin-right: 6px;"><path d="M10.674 9.45c.293 0 .576-.052.85-.153.273-.098.515-.238.726-.422.215-.184.383-.4.504-.65h.03v.662a.569.569 0 00.163.416c.11.101.25.152.422.152a.579.579 0 00.428-.164c.11-.105.164-.256.164-.451V4.973c0-.43-.104-.805-.31-1.125-.208-.32-.5-.569-.88-.744-.378-.18-.828-.27-1.347-.27-.594 0-1.114.115-1.559.346-.445.226-.75.533-.914.92-.031.07-.056.14-.076.21a.684.684 0 00-.03.194c0 .148.05.27.147.363.102.09.23.135.387.135a.61.61 0 00.287-.064.555.555 0 00.217-.2c.172-.32.377-.554.615-.703.238-.148.533-.223.885-.223.426 0 .76.112 1.002.334.242.223.363.528.363.915v.486l-1.828.1c-.77.042-1.361.23-1.775.562-.41.328-.616.773-.616 1.336 0 .379.09.71.27.996.183.285.435.508.756.668.324.16.697.24 1.119.24zm.328-.938c-.367 0-.666-.092-.897-.276a.906.906 0 01-.345-.738.86.86 0 01.34-.709c.23-.184.558-.29.984-.322l1.664-.106v.598c0 .293-.078.557-.234.791a1.69 1.69 0 01-.627.557c-.266.136-.56.205-.885.205zM.689 9.414c.2 0 .354-.045.463-.135.114-.086.202-.234.264-.445l.65-1.816h3.346l.65 1.816c.063.21.149.36.258.445.114.09.268.135.463.135.207 0 .371-.057.492-.17a.593.593 0 00.188-.463c0-.129-.027-.27-.082-.422L4.79 1.357c-.09-.246-.22-.43-.393-.55C4.23.686 4.012.625 3.742.625c-.508 0-.847.244-1.02.732L.116 8.39a1.3 1.3 0 00-.076.404c0 .195.057.348.17.457.117.11.277.164.48.164zm1.717-3.486L3.73 2.119h.03l1.324 3.809H2.406z"></path></svg>