<svg viewBox="0 0 16 16" class="unlocked" style="width: 16px; height: 16px; display: block; flex-shrink: 0; "><path d="M2.49023 14.7227H8.89551C9.94824 14.7227 10.4746 14.1963 10.4746 13.0479V8.20801C10.4746 7.22363 10.085 6.69727 9.29883 6.57422V4.83105C9.29883 3.22461 10.3174 2.35645 11.541 2.35645C12.7646 2.35645 13.79 3.22461 13.79 4.83105V6.28711C13.79 6.76562 14.0703 7.01855 14.4395 7.01855C14.8018 7.01855 15.082 6.7793 15.082 6.28711V4.96094C15.082 2.36328 13.3525 1.1123 11.541 1.1123C9.72949 1.1123 8 2.36328 8 4.96094V6.54004H2.49023C1.43066 6.54004 0.911133 7.06641 0.911133 8.20801V13.0479C0.911133 14.1963 1.43066 14.7227 2.49023 14.7227ZM2.68848 13.5059C2.3877 13.5059 2.2373 13.3623 2.2373 13V8.25586C2.2373 7.89355 2.3877 7.76367 2.68848 7.76367H8.7041C9.00488 7.76367 9.14844 7.89355 9.14844 8.25586V13C9.14844 13.3623 9.00488 13.5059 8.7041 13.5059H2.68848ZM7.99316 21.1123C6.5918 21.1123 5.2793 21.8779 4.75293 23.375L5.78516 24.4141C5.94922 23.0811 6.87891 22.3564 7.99316 22.3564C9.2168 22.3564 10.2422 23.2246 10.2422 24.8311V26.54H7.9248L9.1416 27.7637H11.0078C11.3086 27.7637 11.4521 27.8936 11.4521 28.2559V30.0742L12.7783 31.4072V28.208C12.7783 27.2031 12.3682 26.6768 11.541 26.5674V24.9609C11.541 22.3633 9.81152 21.1123 7.99316 21.1123ZM13.749 35.126C13.9609 35.3379 14.3164 35.3379 14.5215 35.126C14.7266 34.9072 14.7334 34.5723 14.5215 34.3535L2.46973 22.3154C2.25781 22.1035 1.90918 22.0967 1.69043 22.3154C1.48535 22.5205 1.48535 22.876 1.69043 23.0811L13.749 35.126ZM4.79395 34.7227H11.1992C11.5 34.7227 11.7598 34.6816 11.9785 34.5928L10.8711 33.4922C10.8096 33.499 10.7549 33.5059 10.6865 33.5059H4.99219C4.69141 33.5059 4.54102 33.3623 4.54102 33V28.2559C4.54102 27.9004 4.68457 27.7637 4.97852 27.7637H5.14258L4.04883 26.6631C3.48828 26.8818 3.21484 27.3809 3.21484 28.208V33.0479C3.21484 34.1963 3.73438 34.7227 4.79395 34.7227Z"></path></svg>