<svg viewBox="0 0 16 16" class="typesCreatedBy" style="width: 20px; height: 20px; display: block; fill: inherit; flex-shrink: 0; backface-visibility: hidden;"><path d="M8 15.126C11.8623 15.126 15.0615 11.9336 15.0615 8.06445C15.0615 4.20215 11.8623 1.00293 7.99316 1.00293C4.13086 1.00293 0.938477 4.20215 0.938477 8.06445C0.938477 11.9336 4.1377 15.126 8 15.126ZM8 10.4229C6.05176 10.4229 4.54785 11.1133 3.83008 11.9131C2.90039 10.9082 2.33301 9.55469 2.33301 8.06445C2.33301 4.91992 4.84863 2.39746 7.99316 2.39746C11.1377 2.39746 13.6738 4.91992 13.6738 8.06445C13.6738 9.55469 13.1064 10.9082 12.1699 11.9131C11.4521 11.1133 9.94824 10.4229 8 10.4229ZM8 9.30176C9.32617 9.30859 10.3516 8.18066 10.3516 6.71094C10.3516 5.33008 9.31934 4.18164 8 4.18164C6.6875 4.18164 5.6416 5.33008 5.64844 6.71094C5.65527 8.18066 6.68066 9.28809 8 9.30176Z"></path></svg>